<svg width="24" height="25" viewBox="0 0 24 25" fill="none" xmlns="http://www.w3.org/2000/svg">
<path fill-rule="evenodd" clip-rule="evenodd" d="M7 1.5C4.79086 1.5 3 3.29086 3 5.5V19.5C3 21.7091 4.79086 23.5 7 23.5H17C19.2091 23.5 21 21.7091 21 19.5V9.74264C21 9.16548 20.8752 8.60113 20.6407 8.0858C20.4442 7.65387 20.1704 7.25623 19.8284 6.91421L15.5858 2.67157C15.2438 2.32956 14.8461 2.05583 14.4142 1.85928C13.8989 1.62476 13.3345 1.5 12.7574 1.5H7ZM5 5.5C5 4.39543 5.89543 3.5 7 3.5H12.7574C13.0459 3.5 13.328 3.56235 13.5858 3.67965C13.733 3.74662 13.8721 3.83149 14 3.93287V7.50007C14 8.05236 14.4477 8.50007 15 8.50007H18.5672C18.6685 8.6279 18.7534 8.76705 18.8204 8.9142C18.9377 9.17196 19 9.45406 19 9.74264V19.5C19 20.6046 18.1046 21.5 17 21.5H7C5.89543 21.5 5 20.6046 5 19.5V5.5ZM16.2071 14.2071C16.5976 13.8166 16.5976 13.1834 16.2071 12.7929C15.8166 12.4024 15.1834 12.4024 14.7929 12.7929L11 16.5858L9.70711 15.2929C9.31658 14.9024 8.68342 14.9024 8.29289 15.2929C7.90237 15.6834 7.90237 16.3166 8.29289 16.7071L10.2929 18.7071C10.6834 19.0976 11.3166 19.0976 11.7071 18.7071L16.2071 14.2071Z" fill="#18324E"/>
</svg>
