<svg width="24" height="25" viewBox="0 0 24 25" fill="none" xmlns="http://www.w3.org/2000/svg">
<path d="M8 2.5H16C17.1046 2.5 18 3.39543 18 4.5V6.35926C18 7.69668 17.3316 8.9456 16.2188 9.68747L12 12.5L16.2188 15.3125C17.3316 16.0544 18 17.3033 18 18.6407V20.5C18 21.6046 17.1046 22.5 16 22.5H8C6.89543 22.5 6 21.6046 6 20.5V18.6407C6 17.3033 6.6684 16.0544 7.7812 15.3125L12 12.5L7.7812 9.68747C6.6684 8.9456 6 7.69668 6 6.35926V4.5C6 3.39543 6.89543 2.5 8 2.5Z" fill="white"/>
<path d="M12 12.5L16.2188 9.68747C17.3316 8.9456 18 7.69668 18 6.35926V4.5C18 3.39543 17.1046 2.5 16 2.5H8C6.89543 2.5 6 3.39543 6 4.5V6.35926C6 7.69668 6.6684 8.9456 7.7812 9.68747L12 12.5ZM12 12.5L16.2188 15.3125C17.3316 16.0544 18 17.3033 18 18.6407V20.5C18 21.6046 17.1046 22.5 16 22.5H8C6.89543 22.5 6 21.6046 6 20.5V18.6407C6 17.3033 6.6684 16.0544 7.7812 15.3125L12 12.5ZM9 19.5H15" stroke="black" stroke-width="2" stroke-linecap="round"/>
</svg>
