<svg width="48" height="49" viewBox="0 0 48 49" fill="none" xmlns="http://www.w3.org/2000/svg">
<g filter="url(#filter0_dd_2_1665)">
<g clip-path="url(#clip0_2_1665)">
<rect x="6" y="6.5" width="36" height="36" rx="12" fill="url(#paint0_linear_2_1665)"/>
<path fill-rule="evenodd" clip-rule="evenodd" d="M24 32.8334C19.3976 32.8334 15.6667 29.1025 15.6667 24.5001C15.6667 19.8977 19.3976 16.1667 24 16.1667C28.6024 16.1667 32.3333 19.8977 32.3333 24.5001C32.3333 29.1025 28.6024 32.8334 24 32.8334ZM28.3393 23.006C28.6647 22.6806 28.6647 22.1529 28.3393 21.8275C28.0138 21.5021 27.4862 21.5021 27.1608 21.8275L22.75 26.2382L20.8393 24.3275C20.5138 24.0021 19.9862 24.0021 19.6607 24.3275C19.3353 24.6529 19.3353 25.1806 19.6607 25.506L22.1607 28.006C22.4862 28.3314 23.0138 28.3314 23.3393 28.006L28.3393 23.006Z" fill="white"/>
<g filter="url(#filter1_f_2_1665)">
<ellipse cx="24.1415" cy="24.3855" rx="6.52363" ry="36.512" transform="rotate(38.1798 24.1415 24.3855)" fill="white" fill-opacity="0.05"/>
</g>
</g>
<rect x="6.5" y="7" width="35" height="35" rx="11.5" stroke="white" stroke-opacity="0.1"/>
</g>
<defs>
<filter id="filter0_dd_2_1665" x="0" y="0.5" width="48" height="48" filterUnits="userSpaceOnUse" color-interpolation-filters="sRGB">
<feFlood flood-opacity="0" result="BackgroundImageFix"/>
<feColorMatrix in="SourceAlpha" type="matrix" values="0 0 0 0 0 0 0 0 0 0 0 0 0 0 0 0 0 0 127 0" result="hardAlpha"/>
<feMorphology radius="6" operator="dilate" in="SourceAlpha" result="effect1_dropShadow_2_1665"/>
<feOffset/>
<feComposite in2="hardAlpha" operator="out"/>
<feColorMatrix type="matrix" values="0 0 0 0 0.0117647 0 0 0 0 0.592157 0 0 0 0 0.329412 0 0 0 0.1 0"/>
<feBlend mode="normal" in2="BackgroundImageFix" result="effect1_dropShadow_2_1665"/>
<feColorMatrix in="SourceAlpha" type="matrix" values="0 0 0 0 0 0 0 0 0 0 0 0 0 0 0 0 0 0 127 0" result="hardAlpha"/>
<feMorphology radius="3" operator="dilate" in="SourceAlpha" result="effect2_dropShadow_2_1665"/>
<feOffset/>
<feComposite in2="hardAlpha" operator="out"/>
<feColorMatrix type="matrix" values="0 0 0 0 0.0117647 0 0 0 0 0.592157 0 0 0 0 0.329412 0 0 0 0.3 0"/>
<feBlend mode="normal" in2="effect1_dropShadow_2_1665" result="effect2_dropShadow_2_1665"/>
<feBlend mode="normal" in="SourceGraphic" in2="effect2_dropShadow_2_1665" result="shape"/>
</filter>
<filter id="filter1_f_2_1665" x="-14.008" y="-19.6011" width="76.2991" height="87.9731" filterUnits="userSpaceOnUse" color-interpolation-filters="sRGB">
<feFlood flood-opacity="0" result="BackgroundImageFix"/>
<feBlend mode="normal" in="SourceGraphic" in2="BackgroundImageFix" result="shape"/>
<feGaussianBlur stdDeviation="7.5" result="effect1_foregroundBlur_2_1665"/>
</filter>
<linearGradient id="paint0_linear_2_1665" x1="42" y1="42.95" x2="7.35" y2="10.55" gradientUnits="userSpaceOnUse">
<stop stop-color="#039754"/>
<stop offset="1" stop-color="#07B365"/>
</linearGradient>
<clipPath id="clip0_2_1665">
<rect x="6" y="6.5" width="36" height="36" rx="12" fill="white"/>
</clipPath>
</defs>
</svg>
