<svg width="24" height="24" viewBox="0 0 24 24" fill="none" xmlns="http://www.w3.org/2000/svg">
<path d="M12.9091 2.90909C12.9091 2.40701 12.5021 2 12 2C11.4979 2 11.0909 2.40701 11.0909 2.90909V9.80522L6.21462 4.92893C5.8596 4.57391 5.284 4.57391 4.92897 4.92893C4.57395 5.28395 4.57395 5.85956 4.92897 6.21458L9.8053 11.0909H2.90909C2.40701 11.0909 2 11.4979 2 12C2 12.5021 2.40701 12.9091 2.90909 12.9091H9.8053L4.92897 17.7854C4.57395 18.1404 4.57395 18.716 4.92897 19.0711C5.284 19.4261 5.8596 19.4261 6.21462 19.0711L11.0909 14.1948V21.0909C11.0909 21.593 11.4979 22 12 22C12.5021 22 12.9091 21.593 12.9091 21.0909V14.1947L17.7855 19.0711C18.1405 19.4261 18.7161 19.4261 19.0711 19.0711C19.4261 18.716 19.4261 18.1404 19.0711 17.7854L14.1948 12.9091H21.0909C21.593 12.9091 22 12.5021 22 12C22 11.4979 21.593 11.0909 21.0909 11.0909H14.1948L19.0711 6.21458C19.4261 5.85956 19.4261 5.28395 19.0711 4.92893C18.7161 4.57391 18.1405 4.57391 17.7855 4.92893L12.9091 9.8053V2.90909Z" fill="#F4A700"/>
</svg>
