<svg width="24" height="25" viewBox="0 0 24 25" fill="none" xmlns="http://www.w3.org/2000/svg">
<path fill-rule="evenodd" clip-rule="evenodd" d="M6.1072 9.36495C6.4829 7.40273 7.81438 5.78 9.59848 4.99991C9.07975 4.10326 8.11027 3.5 6.99988 3.5C5.34303 3.5 3.99988 4.84315 3.99988 6.5C3.99988 7.84598 4.88629 8.98493 6.1072 9.36495ZM6.08454 11.5095C3.80371 11.659 2 13.5564 2 15.875C2 16.2202 2.27982 16.5 2.625 16.5H5.02185C5.60567 15.5881 6.41092 14.8317 7.36176 14.3064C6.71341 13.5173 6.2625 12.5598 6.08454 11.5095ZM18.9782 16.5H21.375C21.7202 16.5 22 16.2202 22 15.875C22 13.5563 20.1963 11.659 17.9154 11.5095C17.7375 12.5598 17.2866 13.5173 16.6383 14.3064C17.5891 14.8316 18.3944 15.5881 18.9782 16.5ZM17.8928 9.36489C19.1136 8.98481 19.9999 7.84591 19.9999 6.5C19.9999 4.84315 18.6567 3.5 16.9999 3.5C15.8895 3.5 14.9201 4.10322 14.4013 4.99984C16.1855 5.77989 17.517 7.40264 17.8928 9.36489Z" fill="#18324E"/>
<path d="M12 13.5C13.6568 13.5 15 12.1569 15 10.5C15 8.84315 13.6568 7.5 12 7.5C10.3431 7.5 8.99998 8.84315 8.99998 10.5C8.99998 12.1569 10.3431 13.5 12 13.5Z" stroke="#18324E" stroke-width="2"/>
<path d="M16.5 20.5H7.50001C7.22386 20.5 6.99999 20.2761 7 20C7.00006 18.067 8.56708 16.5 10.5001 16.5H13.5001C15.4331 16.5 17.0001 18.067 17 20C17 20.2762 16.7761 20.5 16.5 20.5Z" stroke="#18324E" stroke-width="2"/>
</svg>
