<svg width="206" height="56" viewBox="0 0 206 56" fill="none" xmlns="http://www.w3.org/2000/svg">
<g id="Tech Logos Intercom">
<g id="Logo">
<path id="Vector" d="M80.6566 33.1445V22.8508C80.6566 22.2173 81.1713 21.7027 81.8048 21.7027C82.4382 21.7027 82.9529 22.2173 82.9529 22.8508V33.1445C82.9529 33.7779 82.4382 34.2926 81.8048 34.2926C81.2109 34.2926 80.6566 33.7779 80.6566 33.1445ZM93.8009 33.58L88.8124 25.6222V33.1445C88.8124 33.7779 88.2977 34.2926 87.6643 34.2926C87.0308 34.2926 86.5161 33.7779 86.5161 33.1445V23.1675C86.5161 22.3361 87.1892 21.6235 88.0602 21.6235H88.1394C88.654 21.6235 89.1687 21.9006 89.4459 22.3361L94.3948 30.1752V22.7716C94.3948 22.1382 94.9094 21.6235 95.5429 21.6235C96.1764 21.6235 96.691 22.1382 96.691 22.7716V32.7486C96.691 33.58 96.018 34.2926 95.147 34.2926C94.5927 34.2926 94.078 34.0551 93.8009 33.58ZM104.688 23.8406V33.2633C104.688 33.8571 104.213 34.3322 103.619 34.3322H103.461C102.867 34.3322 102.392 33.8571 102.392 33.2633V23.8406H99.7396C99.1457 23.8406 98.6706 23.3655 98.6706 22.7716C98.6706 22.1777 99.1457 21.7027 99.7396 21.7027H107.381C107.975 21.7027 108.45 22.1777 108.45 22.7716C108.45 23.3655 107.975 23.8406 107.381 23.8406H104.688ZM110.271 33.2633V22.6924C110.271 22.1382 110.746 21.6631 111.3 21.6631H118.229C118.783 21.6631 119.258 22.1382 119.258 22.6924C119.258 23.2467 118.783 23.7218 118.229 23.7218H112.567V26.6515H117.437C117.991 26.6515 118.466 27.1266 118.466 27.6809C118.466 28.2352 117.991 28.7103 117.437 28.7103H112.567V32.1547H118.229C118.783 32.1547 119.258 32.6298 119.258 33.1841C119.258 33.7384 118.783 34.2134 118.229 34.2134H111.3C110.746 34.2926 110.271 33.8571 110.271 33.2633ZM128.958 33.6196L127.137 29.5417H124.326V33.1841C124.326 33.8175 123.811 34.3322 123.178 34.3322H123.138C122.504 34.3322 121.99 33.8175 121.99 33.1841V22.8508C121.99 22.2173 122.504 21.7027 123.138 21.7027H127.335C130.343 21.7027 131.729 23.603 131.729 25.6222C131.729 27.3246 130.819 28.6311 129.433 29.1458L131.017 32.709C131.333 33.4612 130.819 34.2926 129.987 34.2926C129.552 34.2926 129.116 34.0551 128.958 33.6196ZM127.374 23.6822H124.365V27.4434H127.414C128.72 27.4434 129.472 26.7703 129.472 25.5826C129.433 24.5928 128.681 23.6822 127.374 23.6822ZM142.656 33.0257C141.706 33.9759 140.4 34.5302 139.054 34.5302C137.707 34.5302 136.441 34.0947 135.49 33.1049C134.105 31.7192 133.907 30.0564 133.907 27.9976C133.907 25.9389 134.105 24.2365 135.49 22.8904C136.441 21.9402 137.707 21.4651 139.054 21.4651C140.4 21.4651 141.706 21.9798 142.656 22.93C142.973 23.2863 143.25 23.6426 143.448 24.0781C143.804 24.8304 143.25 25.6618 142.419 25.6618C141.944 25.6618 141.548 25.3846 141.35 24.9491C141.271 24.7116 141.112 24.5136 140.954 24.3157C140.558 23.801 139.845 23.5238 139.054 23.5238C138.341 23.5238 137.628 23.8406 137.114 24.3553C136.243 25.2659 136.243 26.8099 136.243 27.9976C136.243 29.1458 136.243 30.7294 137.114 31.64C137.628 32.1547 138.341 32.4714 139.054 32.4714C139.845 32.4714 140.558 32.1943 140.954 31.6796C141.112 31.4817 141.271 31.2441 141.35 31.0066C141.508 30.5711 141.944 30.2939 142.419 30.2939C143.25 30.2939 143.804 31.1253 143.448 31.8776C143.25 32.3131 142.973 32.709 142.656 33.0257ZM154.969 33.1049C154.019 34.0551 152.673 34.5302 151.327 34.5302C149.981 34.5302 148.674 34.0551 147.684 33.1049C146.299 31.7192 146.101 30.0564 146.101 27.9976C146.101 25.9389 146.338 24.2365 147.684 22.8904C148.635 21.9402 149.981 21.4651 151.327 21.4651C152.673 21.4651 153.979 21.9402 154.969 22.8904C156.355 24.2761 156.553 25.9389 156.553 27.9976C156.592 30.0564 156.355 31.7588 154.969 33.1049ZM153.346 24.3949C152.831 23.8802 152.079 23.5634 151.366 23.5634C150.654 23.5634 149.862 23.8802 149.387 24.3949C148.516 25.3054 148.476 26.8495 148.476 28.0372C148.476 29.1854 148.516 30.7294 149.387 31.64C149.902 32.1547 150.654 32.4714 151.366 32.4714C152.079 32.4714 152.871 32.1547 153.346 31.64C154.217 30.7294 154.257 29.1854 154.257 28.0372C154.257 26.8495 154.217 25.2659 153.346 24.3949ZM169.895 33.1841V25.3054L166.926 33.3424C166.767 33.8175 166.292 34.1343 165.778 34.1343C165.263 34.1343 164.827 33.8175 164.629 33.3424L161.66 25.1867V33.1841C161.66 33.8175 161.145 34.2926 160.552 34.2926C159.918 34.2926 159.443 33.7779 159.443 33.1841V23.4051C159.443 22.4549 160.235 21.6631 161.185 21.6631H161.343C162.056 21.6631 162.729 22.0986 162.967 22.8112L165.857 30.6502L168.786 22.8112C169.024 22.1382 169.697 21.6631 170.41 21.6631C171.36 21.6631 172.152 22.4549 172.152 23.4051V33.1841C172.152 33.8175 171.637 34.2926 171.043 34.2926C170.37 34.2926 169.895 33.8175 169.895 33.1841ZM64.6222 10.1816H37.8982C35.404 10.1816 33.4244 12.1612 33.4244 14.6158V41.3398C33.4244 43.8341 35.404 45.8136 37.8982 45.8136H64.6222C67.0769 45.8136 69.0564 43.8341 69.0564 41.3794V14.6554C69.0564 12.1612 67.0769 10.1816 64.6222 10.1816ZM55.9914 16.7142C55.9914 16.0411 56.5061 15.5264 57.1791 15.5264C57.8522 15.5264 58.3668 16.0411 58.3668 16.7142V32.5902C58.3668 33.2633 57.8522 33.7779 57.1791 33.7779C56.5061 33.7779 55.9914 33.2633 55.9914 32.5902V16.7142ZM50.0527 16.1203C50.0527 15.4473 50.5674 14.9326 51.2404 14.9326C51.9135 14.9326 52.4282 15.4473 52.4282 16.1203V33.3424C52.4282 34.0155 51.9135 34.5302 51.2404 34.5302C50.5674 34.5302 50.0527 34.0155 50.0527 33.3424V16.1203ZM44.114 16.7142C44.114 16.0411 44.6287 15.5264 45.3018 15.5264C45.9748 15.5264 46.4895 16.0411 46.4895 16.7142V32.5902C46.4895 33.2633 45.9748 33.7779 45.3018 33.7779C44.6287 33.7779 44.114 33.2633 44.114 32.5902V16.7142ZM38.1754 19.0896C38.1754 18.4166 38.6901 17.9019 39.3631 17.9019C40.0362 17.9019 40.5508 18.4166 40.5508 19.0896V29.7792C40.5508 30.4523 40.0362 30.967 39.3631 30.967C38.6901 30.967 38.1754 30.4523 38.1754 29.7792V19.0896ZM63.9096 37.2224C63.7116 37.3807 59.317 41.0627 51.2404 41.0627C43.1639 41.0627 38.7692 37.3807 38.5713 37.2224C38.0566 36.7869 38.017 36.0346 38.4525 35.5595C38.888 35.0449 39.6402 35.0053 40.1153 35.4408C40.1945 35.4408 44.114 38.6872 51.2404 38.6872C58.446 38.6872 62.326 35.4408 62.326 35.4012C62.8406 34.9657 63.5929 35.0449 63.9888 35.52C64.4639 36.0346 64.3847 36.7869 63.9096 37.2224ZM64.3055 29.7792C64.3055 30.4523 63.7908 30.967 63.1178 30.967C62.4447 30.967 61.93 30.4523 61.93 29.7792V19.0896C61.93 18.4166 62.4447 17.9019 63.1178 17.9019C63.7908 17.9019 64.3055 18.4166 64.3055 19.0896V29.7792Z" fill="#112336"/>
</g>
</g>
</svg>
