<svg width="206" height="56" viewBox="0 0 206 56" fill="none" xmlns="http://www.w3.org/2000/svg">
<g id="Tech Logos Hotjar">
<g id="Logo">
<path id="Vector" d="M71.0866 37.2726V10.6445H75.2193V21.1432C76.523 19.2064 78.4773 18.238 81.0824 18.238C83.3048 18.238 85.0225 18.8953 86.2355 20.2099C87.4484 21.5245 88.0537 23.3573 88.0512 25.7081V37.2726H83.9222V26.2782C83.9222 23.2386 82.5682 21.7188 79.8603 21.7188C78.5058 21.7188 77.3945 22.1274 76.5266 22.9445C75.6587 23.7616 75.2247 24.9115 75.2247 26.3944V37.2726H71.0866Z" fill="#112336"/>
<path id="Vector_2" d="M107.613 34.9758C105.774 36.8145 103.462 37.7345 100.678 37.7357C97.8942 37.7369 95.576 36.8169 93.724 34.9758C91.8719 33.137 90.9459 30.7995 90.9459 27.9633C90.9459 25.1271 91.8719 22.7963 93.724 20.9708C95.576 19.1454 97.8942 18.2327 100.678 18.2327C103.462 18.2327 105.774 19.1454 107.613 20.9708C109.451 22.7975 110.371 25.1283 110.373 27.9633C110.374 30.7983 109.454 33.1358 107.613 34.9758ZM96.7508 32.6389C97.7338 33.7889 99.0429 34.3639 100.678 34.3639C102.314 34.3639 103.623 33.7889 104.606 32.6389C105.594 31.4913 106.087 29.9328 106.087 27.9633C106.087 26.0265 105.589 24.4813 104.593 23.3277C103.597 22.1741 102.294 21.5991 100.686 21.6027C99.0514 21.6027 97.7422 22.171 96.7581 23.3077C95.774 24.4444 95.2825 25.9962 95.2837 27.9633C95.2837 29.9316 95.7752 31.4901 96.7581 32.6389" fill="#112336"/>
<path id="Vector_3" d="M119.949 37.7339C116.143 37.7339 114.24 35.6905 114.24 31.6039V22.1783H111.366V18.692H114.354L115.313 13.2139H118.416V18.692H125.812V22.1783H118.416V31.4895C118.416 33.1999 119.042 34.0557 120.294 34.0569C121.468 34.0569 122.528 32.9838 123.473 30.8376L126.692 32.4863C125.109 35.9859 122.861 37.7351 119.949 37.7339Z" fill="#112336"/>
<path id="Vector_4" d="M128.023 45.781C126.185 45.781 124.665 45.2702 123.464 44.2485L124.996 40.991C125.737 41.859 126.542 42.2935 127.41 42.2947C128.558 42.2947 129.133 41.5539 129.135 40.0723V18.6917H133.271V40.1485C133.271 42.141 132.779 43.5773 131.797 44.4573C130.814 45.3373 129.556 45.7786 128.023 45.781ZM131.203 15.5486C130.523 15.5715 129.861 15.324 129.363 14.8605C129.124 14.6347 128.936 14.3608 128.811 14.0569C128.686 13.753 128.626 13.4259 128.637 13.0974C128.628 12.7663 128.687 12.4368 128.812 12.1301C128.937 11.8234 129.125 11.5461 129.363 11.3161C129.863 10.8596 130.516 10.6064 131.193 10.6064C131.87 10.6064 132.522 10.8596 133.022 11.3161C133.267 11.5425 133.46 11.8187 133.589 12.1259C133.717 12.4334 133.778 12.7644 133.77 13.0974C133.776 13.4243 133.712 13.7487 133.583 14.0491C133.454 14.3496 133.263 14.6193 133.022 14.8405C132.781 15.0722 132.496 15.254 132.185 15.3755C131.873 15.497 131.541 15.5558 131.206 15.5486" fill="#112336"/>
<path id="Vector_5" d="M143.548 37.7337C141.427 37.7337 139.709 37.2041 138.395 36.1449C137.08 35.0857 136.422 33.6621 136.421 31.8742C136.421 30.2388 137.104 28.8522 138.471 27.7143C139.838 26.5764 141.555 26.0099 143.624 26.0148C145.745 26.0148 147.533 26.6914 148.988 28.0448V25.7805C148.988 24.449 148.65 23.42 147.973 22.6937C147.296 21.9674 146.332 21.6043 145.08 21.6043C142.552 21.6043 140.978 22.8941 140.359 25.4737L136.565 24.6693C137.075 22.678 138.085 21.1044 139.593 19.9483C141.102 18.7923 142.978 18.2179 145.222 18.2252C147.675 18.2252 149.611 18.8698 151.032 20.1589C152.454 21.4481 153.163 23.3323 153.161 25.8114V37.2725H149.142V34.9374C147.788 36.8028 145.923 37.7349 143.548 37.7337ZM144.314 34.6687C146.153 34.6687 147.711 33.7493 148.988 31.9105V31.3349C147.712 29.8024 146.154 29.0362 144.314 29.0362C143.24 29.0362 142.371 29.2983 141.707 29.8224C141.392 30.0542 141.138 30.3577 140.965 30.7076C140.791 31.0575 140.704 31.4438 140.71 31.8343C140.7 32.2289 140.783 32.6204 140.953 32.9766C141.123 33.3329 141.375 33.6439 141.689 33.8843C142.34 34.4072 143.215 34.6687 144.314 34.6687Z" fill="#112336"/>
<path id="Vector_6" d="M157.192 37.2726V18.6919H161.215V21.9094C162.231 19.5623 163.993 18.3887 166.503 18.3887C167.988 18.3887 169.215 18.8729 170.183 19.8413C171.152 20.8097 171.636 22.1122 171.636 23.7488C171.626 24.7274 171.458 25.6979 171.138 26.6231L167.345 26.24C167.423 25.7322 167.474 25.2207 167.498 24.7075C167.498 22.7925 166.706 21.8344 165.123 21.8332C164.05 21.8332 163.15 22.4015 162.421 23.5382C161.692 24.6748 161.329 26.1759 161.332 28.0412V37.2726H157.192Z" fill="#112336"/>
<path id="Vector_7" d="M45.2449 21.5352C48.3316 19.8211 52.5515 17.4751 52.5515 10.6406H47.4383C47.4383 14.4537 45.5771 15.496 42.7609 17.0611C39.6741 18.7752 35.4543 21.1194 35.4543 27.9557H40.5675C40.5675 24.1426 42.4286 23.1004 45.2449 21.537" fill="#112336"/>
<path id="Vector_8" d="M54.0947 19.9648C54.0947 23.787 52.2353 24.8202 49.4191 26.3854C46.3323 28.0976 42.1125 30.4436 42.1125 37.2799H47.2257C47.2257 33.4577 49.0868 32.4246 51.9031 30.8612C54.9898 29.1471 59.2097 26.8012 59.2097 19.9667L54.0947 19.9648Z" fill="#112336"/>
</g>
</g>
</svg>
