<svg width="206" height="56" viewBox="0 0 206 56" fill="none" xmlns="http://www.w3.org/2000/svg">
<g id="Tech Logos Attentive">
<g id="Logo">
<path id="path" d="M72.5111 36.0796C71.2849 36.0796 70.4433 35.1178 70.4433 33.6992V27.2314H75.4926V22.663H70.4553L70.4072 17.4214H64.829L64.8771 34.8774C64.8771 38.4119 67.2334 40.8163 70.6958 40.8163C72.5231 40.8163 74.2543 40.5518 75.6248 39.9267V35.4785C74.6516 35.9302 73.5825 36.1365 72.5111 36.0796ZM85.8316 22.3744C80.638 22.3744 76.6467 26.4139 76.6467 31.7757C76.6467 37.0895 80.638 40.7923 86.1441 40.7923C89.2458 40.7923 92.1552 39.6862 93.9344 37.402L89.6546 35.4545C88.789 36.2479 87.4666 36.5605 86.2884 36.5605C84.3649 36.5605 82.4413 35.5747 82.1768 33.555H94.9443C95.1362 32.8333 95.2332 32.0897 95.2328 31.3429C95.2328 25.8368 91.2174 22.3744 85.8436 22.3744H85.8316ZM82.1768 30.0205C82.3452 27.6161 84.0763 26.51 85.9758 26.51C88.1158 26.51 89.7267 27.7122 89.7267 29.78V30.0205H82.1768ZM59.5273 36.0796C58.301 36.0796 57.4595 35.1178 57.4595 33.6992V27.2314H62.5087V22.663H57.4715L57.4234 17.4214H51.8452L51.8932 34.8774C51.8932 38.4119 54.2496 40.8163 57.7119 40.8163C59.5393 40.8163 61.2705 40.5518 62.641 39.9267V35.4785C61.6684 35.9323 60.5988 36.1388 59.5273 36.0796ZM39.9313 22.3744C35.1465 22.3744 30.1213 25.5242 30.1213 31.8719C30.1213 37.1616 33.6798 40.8644 38.1761 40.8644C40.7488 40.8644 42.6964 39.8305 43.9707 38.0031L44.139 40.5518H49.5369V32.0883C49.5369 25.6445 44.7882 22.3744 39.9313 22.3744ZM39.9313 35.9834C37.5028 35.9834 35.7476 34.1801 35.7476 31.6314C35.7476 29.0828 37.4788 27.2795 39.9313 27.2795C42.1914 27.2795 44.0669 29.2511 44.0669 31.6314C44.0669 34.0118 42.1914 35.9834 39.9313 35.9834ZM151.785 22.687L147.889 33.9878L143.946 22.687H137.887L145.148 40.5278H150.582L157.844 22.687H151.785ZM166.235 22.3744C161.042 22.3744 157.05 26.4139 157.05 31.7757C157.05 37.0895 161.042 40.7923 166.548 40.7923C169.649 40.7923 172.559 39.6862 174.338 37.402L170.058 35.4545C169.193 36.2479 167.87 36.5605 166.692 36.5605C164.768 36.5605 162.845 35.5747 162.58 33.555H175.348C175.54 32.8333 175.637 32.0897 175.636 31.3429C175.636 25.8368 171.621 22.3744 166.235 22.3744ZM170.13 30.0205H162.58C162.749 27.6161 164.48 26.51 166.379 26.51C168.519 26.51 170.13 27.7122 170.13 29.78V30.0205ZM133.583 14.8486C131.612 14.8486 130.121 16.1711 130.121 18.0225C130.121 19.8739 131.612 21.2444 133.583 21.2444C135.555 21.2444 137.046 19.8979 137.046 18.0225C137.046 16.147 135.579 14.8486 133.583 14.8486ZM108.265 22.3504C105.972 22.3134 103.827 23.4815 102.614 25.4281L102.422 22.687H97.0361V40.5278H102.614V31.1746C102.735 28.9385 104.538 27.2314 106.51 27.2314C108.722 27.2314 109.731 28.8904 109.731 30.9823V40.5037H115.286V30.1167C115.286 25.5964 112.533 22.3504 108.265 22.3504ZM125.288 36.0796C124.062 36.0796 123.22 35.1178 123.22 33.6992V27.2314H128.269V22.663H123.22L123.172 17.4214H117.594L117.642 34.8774C117.642 38.4119 119.998 40.8163 123.461 40.8163C125.288 40.8163 127.019 40.5518 128.39 39.9267V35.4785C127.421 35.9304 126.356 36.1368 125.288 36.0796ZM130.77 22.687V40.5278H136.396V22.687C134.691 23.8171 132.475 23.8171 130.77 22.687Z" fill="#112336"/>
</g>
</g>
</svg>
