<svg width="206" height="56" viewBox="0 0 206 56" fill="none" xmlns="http://www.w3.org/2000/svg">
<g id="Tech Logos Eventbrite">
<path id="Logo" d="M32.3214 23.5255C37.4486 22.3544 42.5757 25.5035 43.7469 30.5266C43.8626 31.0586 43.9371 31.6113 43.9705 32.1662L43.9811 32.3744L41.0662 33.0251L39.5567 33.3634L30.2133 35.4715C31.3845 37.1372 33.5186 37.996 35.6267 37.5276C36.8634 37.25 37.9532 36.5318 38.6826 35.5156L38.7499 35.4195L43.1743 36.4605C41.9771 39.0371 39.6348 41.0671 36.6157 41.7438C31.4886 42.915 26.3875 39.7918 25.1903 34.7428C23.9931 29.6937 27.1943 24.6967 32.3214 23.5255ZM169.401 23.5516C174.528 22.3804 179.655 25.5296 180.826 30.5526C180.942 31.0847 181.016 31.6373 181.05 32.1923L181.06 32.4004L178.146 33.0511L176.636 33.3894L167.293 35.4975C168.464 37.1632 170.598 38.0221 172.706 37.5536C173.943 37.276 175.033 36.5579 175.762 35.5416L175.829 35.4455L180.254 36.4605C179.056 39.0371 176.714 41.0671 173.695 41.7438C168.568 42.915 163.441 39.7658 162.27 34.7428C161.072 29.7198 164.274 24.7227 169.401 23.5516ZM68.1333 23.5516C73.2605 22.3804 78.3616 25.5296 79.5588 30.5526C79.6744 31.0847 79.749 31.6373 79.7824 32.1923L79.793 32.4004L76.8781 33.0511L75.3686 33.3894L66.0252 35.4975C67.2484 37.2153 69.3826 38.0221 71.4386 37.5536C72.7139 37.2673 73.833 36.5126 74.5618 35.4455L77.6898 36.1516C78.4185 36.3183 78.9862 36.4512 78.9862 36.4605C77.789 39.0371 75.4467 41.0671 72.4276 41.7438C67.3005 42.915 62.1734 39.7658 61.0022 34.7428C59.805 29.7198 63.0062 24.7227 68.1333 23.5516ZM116.698 14V24.931C118.155 23.7598 119.873 23.2653 121.773 23.2653C127.134 23.2653 131.429 27.4034 131.429 32.5826C131.429 37.7358 127.134 41.952 121.773 41.952C119.899 41.952 118.155 41.4575 116.698 40.2863V41.4575H111.987V15.0671L116.698 14ZM137.597 23.5776V25.1652C139.024 24.1458 140.401 23.7753 142.73 23.6381L142.88 23.6296V28.2102C138.32 28.3648 137.611 29.8969 137.597 32.6043L137.597 41.4575H132.886V23.5776H137.597ZM106.834 16.2382V23.5776H110.504V28.0281H106.834V41.4575H101.941V28.0281H99.0523V23.5776H101.941V17.3313L106.834 16.2382ZM90.5938 23.2393C94.5758 23.2393 98.0373 25.5296 98.0373 31.1252V41.4315H93.3005V31.9059C93.3005 28.5173 91.5047 27.7227 89.6711 27.6907L89.5528 27.6897L89.4345 27.6907C87.6008 27.7205 85.805 28.4647 85.805 31.8279V41.4575H81.0943V23.5776H85.805V24.9049L86.1545 24.6537C87.1335 23.9623 88.3679 23.2393 90.5938 23.2393ZM47.6768 23.5776L52.3095 35.7057L56.9942 23.5776H62.1213L54.7819 41.4575H49.889L42.5497 23.5776H47.6768ZM149.231 23.5776V41.4575H144.52V23.5776H149.231ZM158.73 17.3313V23.5776H162.4V28.1061H158.73V41.4315H153.837V28.1322H150.948V23.5776H153.837V17.3313H158.73ZM121.747 27.5596C118.962 27.5596 116.698 29.7718 116.594 32.3484V32.7908C116.724 35.3934 118.988 37.5796 121.747 37.5796C124.558 37.5796 126.874 35.2893 126.874 32.5566C126.874 29.8759 124.558 27.5596 121.747 27.5596ZM166.46 31.8279L175.777 29.7198C174.554 28.0281 172.42 27.2212 170.39 27.6897C168.316 28.1506 166.846 29.7956 166.477 31.7324L166.46 31.8279ZM65.1924 31.8279L74.5097 29.7198C73.3385 28.0801 71.2304 27.2212 69.1223 27.6897C67.0477 28.1508 65.5528 29.7965 65.2081 31.7339L65.1924 31.8279ZM29.3805 31.8279L38.6978 29.7198C37.5267 28.0801 35.4185 27.2212 33.3104 27.6897C31.2358 28.1508 29.7409 29.7713 29.3963 31.7327L29.3805 31.8279ZM146.888 14.4164C148.58 14.4164 149.829 15.6657 149.829 17.3053C149.829 18.971 148.554 20.2463 146.888 20.2463C145.197 20.2463 143.895 18.971 143.895 17.3053C143.895 15.6396 145.197 14.4164 146.888 14.4164Z" fill="#112336"/>
</g>
</svg>
