<svg width="206" height="56" viewBox="0 0 206 56" fill="none" xmlns="http://www.w3.org/2000/svg">
<g id="Tech Logos Podium">
<path id="Logo" d="M29.697 12.303V30.8111L38.5179 43.7068H48.7321L43.381 30.8111H55.4375V12.303H29.697ZM77.1989 32.0796H73.2822V39.1168H68.3077V16.9105H77.1989C81.6717 16.9105 85.0186 20.2281 85.0186 24.5097C85.0186 28.7913 81.6717 32.0796 77.1989 32.0796ZM76.9803 21.6019H73.2822V27.4194H76.9803C78.764 27.4194 80.0461 26.1373 80.0461 24.5097C80.0461 22.8821 78.764 21.6019 76.9803 21.6019ZM85.9573 31.2971C85.9445 29.6671 86.4162 28.0701 87.3124 26.7087C88.2087 25.3472 89.4892 24.2826 90.9914 23.65C92.4936 23.0174 94.1499 22.8453 95.7501 23.1554C97.3503 23.4656 98.8224 24.244 99.9795 25.3921C101.137 26.5401 101.927 28.006 102.249 29.6037C102.572 31.2014 102.413 32.859 101.792 34.3662C101.171 35.8733 100.117 37.1621 98.7625 38.0691C97.4081 38.976 95.8148 39.4602 94.1848 39.4603C93.1075 39.4685 92.0392 39.2635 91.0414 38.8569C90.0437 38.4504 89.1363 37.8504 88.3715 37.0916C87.6067 36.3328 86.9996 35.4301 86.5853 34.4356C86.1709 33.4411 85.9575 32.3744 85.9573 31.2971ZM97.6546 31.2971C97.6546 29.0763 96.1539 27.5443 94.1829 27.5443C92.2119 27.5443 90.7111 29.0763 90.7111 31.2971C90.7111 33.5179 92.2119 35.0518 94.1829 35.0518C96.1539 35.0518 97.6546 33.5179 97.6546 31.2971ZM104.382 31.2971C104.382 26.8554 107.539 23.1339 111.637 23.1339C113.731 23.1339 115.441 24.1975 116.067 25.0425V16.3426H120.79V39.1168H116.069V37.097C115.392 38.2874 113.727 39.4603 111.639 39.4603C107.541 39.4603 104.382 35.7387 104.382 31.2971ZM116.266 31.2971C116.266 29.045 114.828 27.4194 112.701 27.4194C110.574 27.4194 109.135 29.045 109.135 31.2971C109.135 33.5491 110.574 35.1767 112.701 35.1767C114.828 35.1767 116.266 33.5491 116.266 31.2971ZM124.671 23.4774H129.394V39.1168H124.671V23.4774ZM133.084 32.3919V23.4774H137.811V31.58C137.811 33.8633 138.469 35.1747 140.219 35.1747C142.003 35.1747 143.16 33.955 143.16 31.0766V23.4774H147.883V39.1168H143.16V37.0658C142.465 38.4786 141.033 39.4603 138.999 39.4603C135.122 39.4603 133.088 36.6462 133.088 32.3919M151.762 23.4774H156.485V25.5284C157.086 24.297 158.638 23.1261 160.484 23.1261C162.736 23.1261 164.859 24.2755 165.542 26.3754C166.225 24.3555 167.942 23.1261 170.118 23.1261C173.934 23.1261 176.061 25.8582 176.061 30.2023V39.1168H171.338V31.0161C171.338 28.7328 170.68 27.4194 169.086 27.4194C167.429 27.4194 166.27 28.6703 166.27 31.5176V39.1168H161.547V31.0161C161.547 28.7328 160.892 27.4194 159.295 27.4194C157.638 27.4194 156.481 28.6703 156.481 31.5176V39.1168H151.758L151.762 23.4774ZM124.636 16.3426H129.392V20.6359H124.638L124.636 16.3426Z" fill="#112336"/>
</g>
</svg>
